<svg width="111" height="157" viewBox="0 0 111 157" fill="none" xmlns="http://www.w3.org/2000/svg">
<path d="M55.5358 155.018C56.5357 155.018 59.5358 150.518 61.5358 147.518C63.5358 144.518 64.3039 143.88 66.0358 141.518C68.0222 138.809 69.1264 137.282 71.0358 134.518C73.0364 131.622 74.0558 129.929 76.0358 127.018C77.7722 124.465 78.8229 123.087 80.5358 120.518C82.9701 116.867 84.2367 114.756 86.5358 111.018C89.7466 105.798 91.6337 102.916 94.5358 97.5182C96.6033 93.6725 97.664 91.4628 99.5358 87.5182C101.372 83.6492 102.416 81.4824 104.036 77.5182C105.998 72.7154 107.456 70.0927 108.536 65.0182C109.151 62.1281 109.35 60.4672 109.536 57.5181C109.818 53.0317 109.756 50.4553 109.036 46.0182C108.52 42.8394 108.068 41.0686 107.036 38.0182C105.943 34.788 105.196 32.9966 103.536 30.0182C102.188 27.601 101.244 26.3261 99.6219 24.1345L99.5358 24.0182C97.8846 21.7876 96.9232 20.5526 95.0358 18.5182C92.6862 15.9856 91.2676 14.6326 88.5358 12.5182C86.3088 10.7945 84.9678 9.93783 82.5358 8.51815C79.8962 6.97737 78.3533 6.20247 75.5358 5.01815C73.4288 4.13254 72.2476 3.5936 70.0358 3.01815C67.1761 2.27417 65.4756 1.81543 62.5358 1.51815C59.809 1.24243 58.2746 1.11571 55.5358 1.01814C52.8038 0.920822 51.2546 1.23339 48.5358 1.51815C45.7552 1.80938 44.2349 2.2895 41.5358 3.01815C38.5551 3.82282 36.8812 4.32008 34.0358 5.51815C31.6213 6.53475 30.3088 7.21583 28.0358 8.51815C24.7461 10.4029 22.8721 11.5024 20.0358 14.0182C17.6577 16.1274 16.5608 17.5681 14.5358 20.0182C12.6698 22.2758 11.6496 23.574 10.0358 26.0182C8.3009 28.6456 7.3805 30.1713 6.03575 33.0182C4.61065 36.0351 3.95274 37.81 3.03575 41.0182C2.26742 43.7062 1.92854 45.2502 1.53575 48.0181C1.09596 51.1174 0.917186 52.8901 1.03575 56.0181C1.14767 58.9709 1.43916 60.6241 2.03575 63.5181C3.0331 68.3562 4.22227 70.9233 6.03575 75.5182C7.60791 79.5016 8.69572 81.6512 10.5358 85.5182C12.2242 89.0665 13.2033 91.042 15.0358 94.5182C16.9107 98.0749 18.0285 100.034 20.0358 103.518C22.3094 107.464 23.5877 109.678 26.0358 113.518C28.8305 117.902 30.6122 120.219 33.5358 124.518C37.6469 130.564 49.0358 147.018 49.0358 147.018C49.0358 147.018 54.5358 155.018 55.5358 155.018Z" fill="#5DA271"/>
<path d="M99.5358 24.0182C97.8846 21.7876 96.9232 20.5526 95.0358 18.5182C92.6862 15.9856 91.2676 14.6326 88.5358 12.5182C86.3088 10.7945 84.9678 9.93783 82.5358 8.51815C79.8962 6.97737 78.3533 6.20247 75.5358 5.01815C73.4288 4.13254 72.2476 3.5936 70.0358 3.01815C67.1761 2.27417 65.4756 1.81543 62.5358 1.51815C59.809 1.24243 58.2746 1.11571 55.5358 1.01814C52.8038 0.920822 51.2546 1.23339 48.5358 1.51815C45.7552 1.80938 44.2349 2.2895 41.5358 3.01815C38.5551 3.82282 36.8812 4.32008 34.0358 5.51815C31.6213 6.53475 30.3088 7.21583 28.0358 8.51815C24.7461 10.4029 22.8721 11.5024 20.0358 14.0182C17.6577 16.1274 16.5608 17.5681 14.5358 20.0182C12.6698 22.2758 11.6496 23.574 10.0358 26.0182C8.3009 28.6456 7.3805 30.1713 6.03575 33.0182C4.61065 36.0351 3.95274 37.81 3.03575 41.0182C2.26742 43.7062 1.92854 45.2502 1.53575 48.0181C1.09596 51.1174 0.917186 52.8901 1.03575 56.0181C1.14767 58.9709 1.43916 60.6241 2.03575 63.5181C3.0331 68.3562 4.22227 70.9233 6.03575 75.5182C7.60791 79.5016 8.69572 81.6512 10.5358 85.5182C12.2242 89.0665 13.2033 91.042 15.0358 94.5182C16.9107 98.0749 18.0285 100.034 20.0358 103.518C22.3094 107.464 23.5877 109.678 26.0358 113.518C28.8305 117.902 30.6122 120.219 33.5358 124.518C37.6469 130.564 49.0358 147.018 49.0358 147.018C49.0358 147.018 54.5358 155.018 55.5358 155.018C56.5357 155.018 59.5358 150.518 61.5358 147.518C63.5358 144.518 64.3039 143.88 66.0358 141.518C68.0222 138.809 69.1264 137.282 71.0358 134.518C73.0364 131.622 74.0558 129.929 76.0358 127.018C77.7722 124.465 78.8229 123.087 80.5358 120.518C82.9701 116.867 84.2367 114.756 86.5358 111.018C89.7466 105.798 91.6337 102.916 94.5358 97.5182C96.6033 93.6725 97.664 91.4628 99.5358 87.5182C101.372 83.6492 102.416 81.4824 104.036 77.5182C105.998 72.7154 107.456 70.0927 108.536 65.0182C109.151 62.1281 109.35 60.4672 109.536 57.5181C109.818 53.0317 109.756 50.4553 109.036 46.0182C108.52 42.8394 108.068 41.0686 107.036 38.0182C105.943 34.788 105.196 32.9966 103.536 30.0182C102.188 27.601 101.244 26.3261 99.6219 24.1345M99.5358 24.0182L99.6219 24.1345M99.5358 24.0182C99.5647 24.0572 99.5934 24.096 99.6219 24.1345" stroke="black" stroke-width="2"/>
<circle cx="55.5" cy="56.5" r="33.5" fill="white" stroke="black" stroke-width="2"/>
<g clip-path="url(#clip0_5_141)">
<path d="M54.8469 78.2578C56.3935 78.2578 57.4085 77.7744 57.4085 77.0011C57.4085 75.9862 57.1185 73.1024 57.1185 70.8147C57.1185 67.9954 59.374 63.2428 62.3061 57.6364L60.1634 56.4764C57.924 60.5363 57.0863 62.1635 56.168 64.2094L56.0874 56.5087L53.4936 56.3636L53.5259 64.2256C52.6237 62.1795 51.657 60.3752 49.6755 56.9598L48.0322 59.1508C50.3038 63.2428 52.5753 67.9954 52.5753 70.8147C52.5753 73.1024 52.2854 75.9862 52.2854 77.0011C52.2854 77.7744 53.3003 78.2578 54.8469 78.2578Z" fill="#5DA271"/>
<path d="M34 61.4706C34 65.3532 36.6099 68.0437 40.3797 68.0437C41.5719 68.0437 42.8447 67.7376 44.214 67.0609C45.2129 67.9631 47.6617 69.2359 50.5132 69.3486C49.9493 66.7871 48.1933 63.2427 47.1301 61.2934C49.6111 61.0678 51.0126 59.7307 51.657 57.8941C52.5432 58.5385 53.5581 58.8769 54.8469 58.8769C56.1357 58.8769 57.1507 58.5385 58.0368 57.8941C58.6812 59.7307 60.0828 61.0678 62.5638 61.2934C61.5005 63.2427 59.7445 66.7871 59.1806 69.3486C62.0322 69.2359 64.481 67.9631 65.4799 67.0609C66.8492 67.7376 68.122 68.0437 69.3141 68.0437C73.084 68.0437 75.6939 65.3532 75.6939 61.4706C75.6939 59.5051 74.8883 57.4269 73.0356 55.5742C74.5017 54.0437 75.0978 52.2232 75.0978 50.4349C75.0978 46.5845 72.1335 43.0241 68.4281 42.5892C68.267 38.8676 64.1265 36.2094 60.1634 36.2094C58.1335 36.2094 56.2486 36.8377 54.8469 38.2877C53.4453 36.8377 51.5604 36.2094 49.5305 36.2094C45.5673 36.2094 41.4269 38.8676 41.2658 42.5892C37.5604 43.0241 34.58 46.5845 34.58 50.4349C34.58 52.2232 35.1922 54.0437 36.6582 55.5742C34.8055 57.4269 34 59.5051 34 61.4706Z" fill="#5DA271"/>
</g>
<defs>
<clipPath id="clip0_5_141">
<rect width="42" height="42.2578" fill="white" transform="translate(34 36)"/>
</clipPath>
</defs>
</svg>
