<svg width="111" height="157" viewBox="0 0 111 157" fill="none" xmlns="http://www.w3.org/2000/svg">
<path d="M55.5358 155.018C56.5357 155.018 59.5358 150.518 61.5358 147.518C63.5358 144.518 64.3039 143.88 66.0358 141.518C68.0222 138.809 69.1264 137.282 71.0358 134.518C73.0364 131.622 74.0558 129.929 76.0358 127.018C77.7722 124.465 78.8229 123.087 80.5358 120.518C82.9701 116.867 84.2367 114.756 86.5358 111.018C89.7466 105.798 91.6337 102.916 94.5358 97.5182C96.6033 93.6725 97.664 91.4628 99.5358 87.5182C101.372 83.6492 102.416 81.4824 104.036 77.5182C105.998 72.7154 107.456 70.0927 108.536 65.0182C109.151 62.1281 109.35 60.4672 109.536 57.5181C109.818 53.0317 109.756 50.4553 109.036 46.0182C108.52 42.8394 108.068 41.0686 107.036 38.0182C105.943 34.788 105.196 32.9966 103.536 30.0182C102.188 27.601 101.244 26.3261 99.6219 24.1345L99.5358 24.0182C97.8846 21.7876 96.9232 20.5526 95.0358 18.5182C92.6862 15.9856 91.2676 14.6326 88.5358 12.5182C86.3088 10.7945 84.9678 9.93783 82.5358 8.51815C79.8962 6.97737 78.3533 6.20247 75.5358 5.01815C73.4288 4.13254 72.2476 3.5936 70.0358 3.01815C67.1761 2.27417 65.4756 1.81543 62.5358 1.51815C59.809 1.24243 58.2746 1.11571 55.5358 1.01814C52.8038 0.920822 51.2546 1.23339 48.5358 1.51815C45.7552 1.80938 44.2349 2.2895 41.5358 3.01815C38.5551 3.82282 36.8812 4.32008 34.0358 5.51815C31.6213 6.53475 30.3088 7.21583 28.0358 8.51815C24.7461 10.4029 22.8721 11.5024 20.0358 14.0182C17.6577 16.1274 16.5608 17.5681 14.5358 20.0182C12.6698 22.2758 11.6496 23.574 10.0358 26.0182C8.3009 28.6456 7.3805 30.1713 6.03575 33.0182C4.61065 36.0351 3.95274 37.81 3.03575 41.0182C2.26742 43.7062 1.92854 45.2502 1.53575 48.0181C1.09596 51.1174 0.917186 52.8901 1.03575 56.0181C1.14767 58.9709 1.43916 60.6241 2.03575 63.5181C3.0331 68.3562 4.22227 70.9233 6.03575 75.5182C7.60791 79.5016 8.69572 81.6512 10.5358 85.5182C12.2242 89.0665 13.2033 91.042 15.0358 94.5182C16.9107 98.0749 18.0285 100.034 20.0358 103.518C22.3094 107.464 23.5877 109.678 26.0358 113.518C28.8305 117.902 30.6122 120.219 33.5358 124.518C37.6469 130.564 49.0358 147.018 49.0358 147.018C49.0358 147.018 54.5358 155.018 55.5358 155.018Z" fill="#355995"/>
<path d="M99.5358 24.0182C97.8846 21.7876 96.9232 20.5526 95.0358 18.5182C92.6862 15.9856 91.2676 14.6326 88.5358 12.5182C86.3088 10.7945 84.9678 9.93783 82.5358 8.51815C79.8962 6.97737 78.3533 6.20247 75.5358 5.01815C73.4288 4.13254 72.2476 3.5936 70.0358 3.01815C67.1761 2.27417 65.4756 1.81543 62.5358 1.51815C59.809 1.24243 58.2746 1.11571 55.5358 1.01814C52.8038 0.920822 51.2546 1.23339 48.5358 1.51815C45.7552 1.80938 44.2349 2.2895 41.5358 3.01815C38.5551 3.82282 36.8812 4.32008 34.0358 5.51815C31.6213 6.53475 30.3088 7.21583 28.0358 8.51815C24.7461 10.4029 22.8721 11.5024 20.0358 14.0182C17.6577 16.1274 16.5608 17.5681 14.5358 20.0182C12.6698 22.2758 11.6496 23.574 10.0358 26.0182C8.3009 28.6456 7.3805 30.1713 6.03575 33.0182C4.61065 36.0351 3.95274 37.81 3.03575 41.0182C2.26742 43.7062 1.92854 45.2502 1.53575 48.0181C1.09596 51.1174 0.917186 52.8901 1.03575 56.0181C1.14767 58.9709 1.43916 60.6241 2.03575 63.5181C3.0331 68.3562 4.22227 70.9233 6.03575 75.5182C7.60791 79.5016 8.69572 81.6512 10.5358 85.5182C12.2242 89.0665 13.2033 91.042 15.0358 94.5182C16.9107 98.0749 18.0285 100.034 20.0358 103.518C22.3094 107.464 23.5877 109.678 26.0358 113.518C28.8305 117.902 30.6122 120.219 33.5358 124.518C37.6469 130.564 49.0358 147.018 49.0358 147.018C49.0358 147.018 54.5358 155.018 55.5358 155.018C56.5357 155.018 59.5358 150.518 61.5358 147.518C63.5358 144.518 64.3039 143.88 66.0358 141.518C68.0222 138.809 69.1264 137.282 71.0358 134.518C73.0364 131.622 74.0558 129.929 76.0358 127.018C77.7722 124.465 78.8229 123.087 80.5358 120.518C82.9701 116.867 84.2367 114.756 86.5358 111.018C89.7466 105.798 91.6337 102.916 94.5358 97.5182C96.6033 93.6725 97.664 91.4628 99.5358 87.5182C101.372 83.6492 102.416 81.4824 104.036 77.5182C105.998 72.7154 107.456 70.0927 108.536 65.0182C109.151 62.1281 109.35 60.4672 109.536 57.5181C109.818 53.0317 109.756 50.4553 109.036 46.0182C108.52 42.8394 108.068 41.0686 107.036 38.0182C105.943 34.788 105.196 32.9966 103.536 30.0182C102.188 27.601 101.244 26.3261 99.6219 24.1345M99.5358 24.0182L99.6219 24.1345M99.5358 24.0182C99.5647 24.0572 99.5934 24.096 99.6219 24.1345" stroke="black" stroke-width="2"/>
<circle cx="55.5" cy="56.5" r="33.5" fill="white" stroke="black" stroke-width="2"/>
<g clip-path="url(#clip0_5_140)">
<path d="M44.707 59.0312C43.9258 59.0312 43.3398 58.4453 43.3398 57.6641C43.3398 56.9023 43.9258 56.3164 44.707 56.3164H53.5547V44.5C53.5547 43.7383 54.1406 43.1523 54.9023 43.1523C55.6641 43.1523 56.2695 43.7383 56.2695 44.5V57.6641C56.2695 58.4453 55.6641 59.0312 54.9023 59.0312H44.707ZM54.9219 76.8438C65.8203 76.8438 74.8438 67.8008 74.8438 56.9219C74.8438 46.0234 65.8008 37 54.9023 37C44.0234 37 35 46.0234 35 56.9219C35 67.8008 44.043 76.8438 54.9219 76.8438Z" fill="#355995"/>
</g>
<defs>
<clipPath id="clip0_5_140">
<rect width="40.2148" height="39.8633" fill="white" transform="translate(35 37)"/>
</clipPath>
</defs>
</svg>
